<svg width="11" height="13" viewBox="0 0 11 13" fill="none" xmlns="http://www.w3.org/2000/svg">
<path fill-rule="evenodd" clip-rule="evenodd" d="M0.75 4.49915C0.75 3.32338 1.70314 2.37024 2.87891 2.37024V3.37024C2.25543 3.37024 1.75 3.87567 1.75 4.49915V9.87024C1.75 10.6987 2.42157 11.3702 3.25 11.3702H6.84766C7.34601 11.3702 7.75 10.9662 7.75 10.4679H8.75C8.75 11.5185 7.89829 12.3702 6.84766 12.3702H3.25C1.86929 12.3702 0.75 11.251 0.75 9.87024V4.49915Z" fill="#91ABB8"/>
<path fill-rule="evenodd" clip-rule="evenodd" d="M6.75 1.13H4.87891C4.32662 1.13 3.87891 1.57772 3.87891 2.13V8.46852C3.87891 9.02081 4.32662 9.46852 4.87891 9.46852H8.7492C9.30148 9.46852 9.7492 9.02081 9.7492 8.46852V4.37024H8.25C7.42157 4.37024 6.75 3.69867 6.75 2.87024V1.13ZM9.7492 3.37024H8.25C7.97386 3.37024 7.75 3.14638 7.75 2.87024V1.13H7.95724C8.17557 1.13 8.3879 1.20146 8.56181 1.33345L8.91091 1.59841L9.39854 2.01477C9.62105 2.20477 9.7492 2.48268 9.7492 2.77527V3.37024ZM9.53838 0.819239L9.16638 0.536896C8.81856 0.272909 8.3939 0.130005 7.95724 0.130005H4.87891C3.77434 0.130005 2.87891 1.02543 2.87891 2.13V8.46852C2.87891 9.57309 3.77434 10.4685 4.87891 10.4685H8.7492C9.85376 10.4685 10.7492 9.57309 10.7492 8.46852V2.77527C10.7492 2.19009 10.4929 1.63426 10.0479 1.25428L9.53838 0.819239Z" fill="#91ABB8"/>
</svg>
