<svg viewBox="0 0 16 12" fill="none" xmlns="http://www.w3.org/2000/svg">
<path d="M0.895935 1.88329H15.089C15.4732 1.88329 15.7821 1.56689 15.7821 1.19021C15.7821 0.798471 15.4732 0.497131 15.089 0.497131H0.895935C0.511727 0.497131 0.210388 0.806004 0.210388 1.19021C0.210388 1.56689 0.511727 1.88329 0.895935 1.88329ZM0.895935 6.68798H15.089C15.4732 6.68798 15.7821 6.37157 15.7821 5.9949C15.7821 5.60316 15.4732 5.30182 15.089 5.30182H0.895935C0.511727 5.30182 0.210388 5.61069 0.210388 5.9949C0.210388 6.37157 0.511727 6.68798 0.895935 6.68798ZM0.895935 11.4927H15.089C15.4732 11.4927 15.7821 11.1763 15.7821 10.7996C15.7821 10.4154 15.4732 10.1065 15.089 10.1065H0.895935C0.511727 10.1065 0.210388 10.4154 0.210388 10.7996C0.210388 11.1763 0.511727 11.4927 0.895935 11.4927Z" fill="#0088CC"/>
</svg>
