<svg viewBox="0 0 12 12" fill="none" xmlns="http://www.w3.org/2000/svg">
<path fill-rule="evenodd" clip-rule="evenodd" d="M9.94896 0.753704C10.5728 0.234509 11.5111 0.741426 11.4188 1.54782L11.1364 4.01533C11.4457 4.4252 12.2051 5.60463 11.9479 7.10312C11.4874 9.78574 9.03598 12 5.99999 12C2.9589 12 0.495975 9.68892 0.0520982 7.10312C-0.205131 5.60463 0.55434 4.4252 0.863553 4.01533L0.581165 1.54782C0.488878 0.741423 1.42714 0.234511 2.05103 0.753704L3.9523 2.33593C5.22103 1.66581 6.77896 1.66581 8.04768 2.33593L9.94896 0.753704ZM10.397 1.68186L8.64413 3.14055C8.33547 3.39741 7.92068 3.40368 7.60734 3.23442C6.61734 2.69965 5.38265 2.69965 4.39265 3.23442C4.0793 3.40368 3.66451 3.39741 3.35586 3.14055L1.60303 1.68186L1.86017 3.9287C1.88982 4.18782 1.80539 4.42867 1.6677 4.60986C1.4161 4.94096 0.849773 5.83927 1.03768 6.93393C1.40153 9.05355 3.45977 11 5.99999 11C8.54532 11 10.5836 9.14019 10.9623 6.93393C11.1502 5.83927 10.5839 4.94097 10.3323 4.60986C10.1946 4.42867 10.1102 4.18782 10.1398 3.9287L10.397 1.68186Z" fill="#91ABB8"/>
<path d="M4.818 6.88495C4.64485 7.36068 3.926 7.53578 3.2124 7.27606C2.49881 7.01633 2.06069 6.42012 2.23384 5.94439C2.407 5.46866 3.12585 5.29356 3.83944 5.55329C4.55304 5.81301 4.99115 6.40922 4.818 6.88495Z" fill="#91ABB8"/>
<path d="M9.76852 5.94817C9.94167 6.4239 9.50356 7.02011 8.78996 7.27984C8.07637 7.53956 7.35752 7.36446 7.18437 6.88873C7.01122 6.413 7.44933 5.81679 8.16293 5.55707C8.87652 5.29734 9.59537 5.47244 9.76852 5.94817Z" fill="#91ABB8"/>
<path d="M6.82127 8.38572C6.30228 8.25948 5.5974 8.26075 5.10987 8.38959C4.80849 8.46924 4.78951 8.81069 5.02596 9.01381C5.32024 9.2666 5.71638 9.55319 5.99997 9.5533C6.26856 9.55341 6.63809 9.29636 6.92643 9.05439C7.18432 8.83798 7.14839 8.46528 6.82127 8.38572Z" fill="#91ABB8"/>
</svg>
