<svg viewBox="0 0 24 24" fill="none" xmlns="http://www.w3.org/2000/svg">
<path d="M13.5312 12L16.875 15.375C17.125 15.6042 17.125 15.8333 16.875 16.0625L16.0938 16.8438C15.8646 17.0938 15.6354 17.0938 15.4062 16.8438L12.0312 13.5L8.65625 16.8438C8.42708 17.0938 8.19792 17.0938 7.96875 16.8438L7.1875 16.0625C6.9375 15.8333 6.9375 15.6042 7.1875 15.375L10.5312 12L7.1875 8.625C6.9375 8.39583 6.9375 8.16667 7.1875 7.9375L7.96875 7.15625C8.19792 6.90625 8.42708 6.90625 8.65625 7.15625L12.0312 10.5L15.4062 7.15625C15.6354 6.90625 15.8646 6.90625 16.0938 7.15625L16.875 7.9375C17.125 8.16667 17.125 8.39583 16.875 8.625L13.5312 12Z" fill="#000"/>
</svg>
