<svg viewBox="0 0 14 16" fill="none" xmlns="http://www.w3.org/2000/svg">
<path d="M13.5625 2.0625C13.8542 2.35417 14 2.70833 14 3.125V11.5C14 11.9167 13.8542 12.2708 13.5625 12.5625C13.2708 12.8542 12.9167 13 12.5 13H10V14.5C10 14.9167 9.85417 15.2708 9.5625 15.5625C9.27083 15.8542 8.91667 16 8.5 16H1.5C1.08333 16 0.729167 15.8542 0.4375 15.5625C0.145833 15.2708 0 14.9167 0 14.5V4.5C0 4.08333 0.145833 3.72917 0.4375 3.4375C0.729167 3.14583 1.08333 3 1.5 3H4V1.5C4 1.08333 4.14583 0.729167 4.4375 0.4375C4.72917 0.145833 5.08333 0 5.5 0H10.875C11.2917 0 11.6458 0.145833 11.9375 0.4375L13.5625 2.0625ZM8.3125 14.5C8.4375 14.5 8.5 14.4375 8.5 14.3125V13H5.5C5.08333 13 4.72917 12.8542 4.4375 12.5625C4.14583 12.2708 4 11.9167 4 11.5V4.5H1.6875C1.5625 4.5 1.5 4.5625 1.5 4.6875V14.3125C1.5 14.4375 1.5625 14.5 1.6875 14.5H8.3125ZM12.3125 11.5C12.4375 11.5 12.5 11.4375 12.5 11.3125V5H9.75C9.54167 5 9.36458 4.92708 9.21875 4.78125C9.07292 4.63542 9 4.45833 9 4.25V1.5H5.6875C5.5625 1.5 5.5 1.5625 5.5 1.6875V11.3125C5.5 11.4375 5.5625 11.5 5.6875 11.5H12.3125ZM12.5 3.5V3.1875C12.5 3.14583 12.4792 3.10417 12.4375 3.0625L10.9375 1.5625C10.8958 1.52083 10.8542 1.5 10.8125 1.5H10.5V3.5H12.5Z" fill="black"/>
</svg>
