<svg viewBox="0 0 20 21" fill="none" xmlns="http://www.w3.org/2000/svg">
<path fill-rule="evenodd" clip-rule="evenodd" d="M3.53885 1.39935C3.67545 1.00831 4.10319 0.802045 4.49423 0.938647L7.11295 1.85345C7.48789 1.98442 7.69572 2.38498 7.58692 2.76695L6.79017 5.5641C6.6767 5.96247 6.26178 6.19342 5.86341 6.07995C5.46504 5.96648 5.23409 5.55155 5.34756 5.15318L5.68513 3.96806C3.57734 5.26377 2.07434 7.4886 1.79592 10.1376C1.31965 14.669 4.60698 18.7285 9.13837 19.2048C13.6698 19.681 17.7293 16.3937 18.2055 11.8623C18.544 8.6419 16.9818 5.6584 14.4196 4.03078C14.07 3.80868 13.9666 3.3452 14.1887 2.99557C14.4108 2.64593 14.8743 2.54255 15.2239 2.76465C18.2483 4.68583 20.0976 8.2108 19.6973 12.0191C19.1345 17.3744 14.3369 21.2594 8.98158 20.6965C3.6263 20.1337 -0.258723 15.3361 0.304139 9.9808C0.634297 6.83957 2.42145 4.2051 4.92168 2.67686L3.99955 2.35473C3.60851 2.21813 3.40225 1.79039 3.53885 1.39935ZM13.0807 6.90062C13.4118 7.14945 13.4785 7.61961 13.2297 7.95075L7.96971 14.9508C7.72087 15.2819 7.25071 15.3486 6.91957 15.0998C6.58843 14.851 6.5217 14.3808 6.77053 14.0497L12.0305 7.04966C12.2794 6.71851 12.7495 6.65179 13.0807 6.90062Z" fill="#0088CC"/>
</svg>
