<svg viewBox="0 0 20 20" fill="none" xmlns="http://www.w3.org/2000/svg">
<path fill-rule="evenodd" clip-rule="evenodd" d="M10 0.25C10.4142 0.25 10.75 0.585786 10.75 1V9.97377L13.035 7.8929C13.3413 7.61401 13.8156 7.63619 14.0945 7.94245C14.3734 8.2487 14.3512 8.72306 14.045 9.00195L10.505 12.2257C10.2188 12.4863 9.78123 12.4863 9.49502 12.2257L5.95502 9.00195C5.64877 8.72306 5.62659 8.2487 5.90548 7.94245C6.18437 7.63619 6.65873 7.61401 6.96498 7.8929L9.25 9.97376V1C9.25 0.585786 9.58579 0.25 10 0.25ZM2.93275 4.37674C3.27696 4.60715 3.36922 5.07298 3.13881 5.41719C2.26158 6.7277 1.75 8.30297 1.75 10C1.75 14.5563 5.44365 18.25 10 18.25C14.5564 18.25 18.25 14.5563 18.25 10C18.25 8.30297 17.7384 6.7277 16.8612 5.41719C16.6308 5.07298 16.723 4.60715 17.0673 4.37674C17.4115 4.14633 17.8773 4.23859 18.1077 4.58281C19.145 6.1325 19.75 7.99674 19.75 10C19.75 15.3848 15.3848 19.75 10 19.75C4.61523 19.75 0.250004 15.3848 0.250004 10C0.250004 7.99674 0.854966 6.1325 1.8923 4.58281C2.12271 4.23859 2.58853 4.14633 2.93275 4.37674Z" fill="#0088CC"/>
</svg>
