<svg viewBox="0 0 16 15" fill="none" xmlns="http://www.w3.org/2000/svg">
<path d="M6.7419 12.3142C7.93972 12.3142 9.06221 11.9526 9.99636 11.3348L13.296 14.642C13.5145 14.853 13.7932 14.9584 14.0946 14.9584C14.7199 14.9584 15.1794 14.4688 15.1794 13.851C15.1794 13.5647 15.0815 13.286 14.8705 13.0751L11.5935 9.78293C12.2715 8.81865 12.6708 7.65096 12.6708 6.38533C12.6708 3.12333 10.0039 0.456482 6.7419 0.456482C3.48744 0.456482 0.813049 3.12333 0.813049 6.38533C0.813049 9.64733 3.4799 12.3142 6.7419 12.3142ZM6.7419 10.7322C4.35379 10.7322 2.39508 8.77345 2.39508 6.38533C2.39508 3.99722 4.35379 2.03851 6.7419 2.03851C9.13001 2.03851 11.0887 3.99722 11.0887 6.38533C11.0887 8.77345 9.13001 10.7322 6.7419 10.7322Z" fill="#91ABB8"/>
</svg>
