<svg viewBox="0 0 21 20" fill="none" xmlns="http://www.w3.org/2000/svg">
<path fill-rule="evenodd" clip-rule="evenodd" d="M9.99508 0.445423C10.2813 0.184859 10.7187 0.184859 11.0049 0.445422L14.5449 3.66844C14.8512 3.9473 14.8734 4.42166 14.5946 4.72794C14.3157 5.03423 13.8414 5.05646 13.5351 4.7776L11.25 2.69713V11.67C11.25 12.0842 10.9142 12.42 10.5 12.42C10.0858 12.42 9.75 12.0842 9.75 11.67V2.69713L7.46492 4.7776C7.15864 5.05646 6.68428 5.03423 6.40542 4.72794C6.12656 4.42166 6.1488 3.9473 6.45508 3.66844L9.99508 0.445423ZM3.43274 4.37674C3.77696 4.60715 3.86922 5.07298 3.63881 5.41719C2.76158 6.7277 2.25 8.30297 2.25 10C2.25 14.5563 5.94365 18.25 10.5 18.25C15.0563 18.25 18.75 14.5563 18.75 10C18.75 8.30297 18.2384 6.7277 17.3612 5.41719C17.1308 5.07298 17.223 4.60715 17.5673 4.37674C17.9115 4.14633 18.3773 4.23859 18.6077 4.58281C19.645 6.1325 20.25 7.99674 20.25 10C20.25 15.3848 15.8848 19.75 10.5 19.75C5.11522 19.75 0.75 15.3848 0.75 10C0.75 7.99674 1.35496 6.1325 2.39229 4.58281C2.6227 4.23859 3.08853 4.14633 3.43274 4.37674Z" fill="#0088CC"/>
</svg>
