<svg viewBox="0 0 24 24" fill="none" xmlns="http://www.w3.org/2000/svg">
<path d="M18.9258 11.582C18.9492 12.0273 18.9492 12.4727 18.9258 12.918L20.0156 13.5508C20.3906 13.7852 20.5312 14.1016 20.4375 14.5C20.0156 16 19.2539 17.3008 18.1523 18.4023C17.8477 18.707 17.5078 18.7539 17.1328 18.543L16.043 17.9102C15.668 18.168 15.2812 18.3906 14.8828 18.5781V19.8438C14.8828 20.2891 14.6719 20.5703 14.25 20.6875C12.75 21.0859 11.25 21.0859 9.75 20.6875C9.58594 20.6406 9.43359 20.5352 9.29297 20.3711C9.17578 20.207 9.11719 20.0312 9.11719 19.8438V18.5781C8.71875 18.3906 8.33203 18.168 7.95703 17.9102L6.86719 18.543C6.49219 18.7539 6.15234 18.707 5.84766 18.4023C4.74609 17.3008 3.98438 16 3.5625 14.5C3.46875 14.1016 3.60938 13.7852 3.98438 13.5508L5.07422 12.918C5.07422 12.707 5.07422 12.4844 5.07422 12.25C5.07422 12.0156 5.07422 11.793 5.07422 11.582L3.98438 10.9492C3.60938 10.7148 3.46875 10.3984 3.5625 10C3.98438 8.5 4.74609 7.19922 5.84766 6.09766C6.15234 5.79297 6.49219 5.74609 6.86719 5.95703L7.95703 6.58984C8.33203 6.33203 8.71875 6.10937 9.11719 5.92188V4.65625C9.11719 4.21094 9.32812 3.92969 9.75 3.8125C11.25 3.41406 12.75 3.41406 14.25 3.8125C14.4141 3.85937 14.5547 3.96484 14.6719 4.12891C14.8125 4.29297 14.8828 4.46875 14.8828 4.65625V5.92188C15.2812 6.10937 15.668 6.33203 16.043 6.58984L17.1328 5.95703C17.5078 5.74609 17.8477 5.79297 18.1523 6.09766C19.2539 7.19922 20.0156 8.5 20.4375 10C20.5312 10.3984 20.3906 10.7148 20.0156 10.9492L18.9258 11.582ZM17.0625 13.7969C17.2031 13.0703 17.2734 12.5547 17.2734 12.25C17.2734 11.9453 17.2031 11.4297 17.0625 10.7031L18.6094 9.82422C18.3281 9.07422 17.9297 8.38281 17.4141 7.75L15.8672 8.62891C15.4688 8.30078 15.1641 8.06641 14.9531 7.92578C14.7422 7.76172 14.5195 7.63281 14.2852 7.53906C14.0508 7.42188 13.6875 7.26953 13.1953 7.08203V5.32422C12.7969 5.25391 12.3984 5.21875 12 5.21875C11.6016 5.21875 11.2031 5.25391 10.8047 5.32422V7.08203C10.125 7.33984 9.64453 7.55078 9.36328 7.71484C9.10547 7.85547 8.69531 8.16016 8.13281 8.62891L6.58594 7.75C6.07031 8.38281 5.67188 9.07422 5.39062 9.82422L6.9375 10.7031C6.79688 11.4297 6.72656 11.9453 6.72656 12.25C6.72656 12.5547 6.79688 13.0703 6.9375 13.7969L5.39062 14.6758C5.67188 15.4258 6.07031 16.1172 6.58594 16.75L8.13281 15.8711C8.69531 16.3398 9.10547 16.6562 9.36328 16.8203C9.64453 16.9609 10.125 17.1602 10.8047 17.418V19.1758C11.2031 19.2461 11.6016 19.2812 12 19.2812C12.3984 19.2812 12.7969 19.2461 13.1953 19.1758V17.418C13.6875 17.2305 14.0508 17.0898 14.2852 16.9961C14.5195 16.8789 14.7422 16.75 14.9531 16.6094C15.1641 16.4453 15.4688 16.1992 15.8672 15.8711L17.4141 16.75C17.9297 16.1172 18.3281 15.4258 18.6094 14.6758L17.0625 13.7969ZM9.60938 9.85938C10.2656 9.20312 11.0625 8.875 12 8.875C12.9375 8.875 13.7344 9.20312 14.3906 9.85938C15.0469 10.5156 15.375 11.3125 15.375 12.25C15.375 13.1875 15.0469 13.9844 14.3906 14.6406C13.7344 15.2969 12.9375 15.625 12 15.625C11.0625 15.625 10.2656 15.2969 9.60938 14.6406C8.95312 13.9844 8.625 13.1875 8.625 12.25C8.625 11.3125 8.95312 10.5156 9.60938 9.85938ZM10.8047 13.4453C11.1328 13.7734 11.5312 13.9375 12 13.9375C12.4688 13.9375 12.8672 13.7734 13.1953 13.4453C13.5234 13.1172 13.6875 12.7188 13.6875 12.25C13.6875 11.7812 13.5234 11.3828 13.1953 11.0547C12.8672 10.7266 12.4688 10.5625 12 10.5625C11.5312 10.5625 11.1328 10.7266 10.8047 11.0547C10.4766 11.3828 10.3125 11.7812 10.3125 12.25C10.3125 12.7188 10.4766 13.1172 10.8047 13.4453Z" fill="#000"/>
</svg>
