<svg viewBox="0 0 20 20" fill="none" xmlns="http://www.w3.org/2000/svg">
<path fill-rule="evenodd" clip-rule="evenodd" d="M10.75 19C10.75 19.4142 10.4142 19.75 10 19.75C4.61522 19.75 0.25 15.3848 0.25 10C0.25 7.23522 1.40121 4.73963 3.24851 2.96603L1.96869 2.73845C1.56088 2.66593 1.28907 2.27654 1.36158 1.86873C1.4341 1.46091 1.82349 1.1891 2.23131 1.26162L5.13131 1.77729C5.46063 1.83586 5.71137 2.10542 5.74598 2.43812L6.04598 5.32244C6.08883 5.73443 5.78958 6.10316 5.37759 6.14601C4.9656 6.18886 4.59688 5.88961 4.55402 5.47762L4.39478 3.94659C2.76727 5.45415 1.75 7.60833 1.75 10C1.75 14.5563 5.44365 18.25 10 18.25C10.4142 18.25 10.75 18.5858 10.75 19ZM18.6384 18.1313C18.5659 18.5392 18.1765 18.811 17.7687 18.7384L14.8687 18.2228C14.5394 18.1642 14.2886 17.8946 14.254 17.5619L13.954 14.6776C13.9112 14.2656 14.2104 13.8969 14.6224 13.8541C15.0344 13.8112 15.4031 14.1104 15.446 14.5224L15.6052 16.0535C17.2327 14.5459 18.25 12.3917 18.25 10C18.25 5.44369 14.5563 1.75003 10 1.75003C9.58579 1.75003 9.25 1.41425 9.25 1.00003C9.25 0.585819 9.58579 0.250032 10 0.250032C15.3848 0.250032 19.75 4.61526 19.75 10C19.75 12.7648 18.5988 15.2604 16.7515 17.034L18.0313 17.2616C18.4391 17.3341 18.7109 17.7235 18.6384 18.1313Z" fill="#0088CC"/>
</svg>
